<svg width="767" height="197" viewBox="0 0 767 197" fill="none" xmlns="http://www.w3.org/2000/svg">
<path d="M191 98C191 146.049 152.049 185 104 185C55.9512 185 17 146.049 17 98C17 49.9512 55.9512 11 104 11C152.049 11 191 49.9512 191 98Z" fill="white"/>
<path d="M126.315 67.9225C128.833 67.9225 130.873 69.9638 130.873 72.4835V75.8645C130.873 77.0765 130.395 78.2247 129.534 79.0859L119.239 89.3882L132.116 102.274L143.718 90.664C147.128 87.2512 149.073 82.5944 149.073 77.7463V67.9225C149.073 57.8435 140.913 49.6782 130.841 49.6782H79.9706C74.8708 49.6782 70.7273 53.8246 70.7273 58.9279V123.516C70.7273 126.036 72.7672 128.078 75.2852 128.078H78.6638C79.875 128.078 81.0225 127.599 81.883 126.738L112.227 96.3733L154.3 138.476C157.169 141.346 155.129 146.29 151.049 146.258H136.23L112.227 122.145L93.4213 140.963C90.0108 144.376 85.3573 146.322 80.5125 146.322H70.6954C60.6233 146.322 52.4636 138.157 52.4636 128.078V77.0446C52.4636 72.0051 56.5435 67.9225 61.5795 67.9225H126.315Z" fill="#FF3C00"/>
<path d="M223 159.835L223.001 47.8566H272.978C287.374 47.8566 298.344 50.7109 305.89 56.4196C313.552 62.1284 317.383 70.6915 317.383 82.1089C317.383 91.2209 315.003 98.4117 310.244 103.681C305.484 108.841 298.634 112.409 289.695 114.385L324.51 159.835H294.733L263.226 116.197H248.425V159.835H223ZM248.425 97.259H268.799C276.809 97.259 282.614 96.1062 286.213 93.8008C289.928 91.3856 291.785 87.5432 291.785 82.2736C291.785 76.8942 289.986 73.0518 286.387 70.7463C282.788 68.3311 276.925 67.1235 268.799 67.1235H248.425V97.259Z" fill="white"/>
<path d="M329.831 117.02C329.831 91.66 349.161 74.2045 375.804 74.2045C402.447 74.2045 421.776 91.66 421.776 117.02C421.776 142.38 402.447 159.835 375.804 159.835C349.161 159.835 329.831 142.38 329.831 117.02ZM351.076 117.02C351.076 131.841 361.176 141.886 375.804 141.886C390.431 141.886 400.531 131.841 400.531 117.02C400.531 102.199 390.431 92.154 375.804 92.154C361.176 92.154 351.076 102.199 351.076 117.02Z" fill="white"/>
<path d="M459.612 159.835H438.616V76.51H458.293L460.035 87.0491C465.433 78.8154 475.881 74.0398 487.549 74.0398C509.142 74.0398 520.287 86.7198 520.287 107.798V159.835H499.042V112.574C499.042 98.9057 491.902 92.3187 480.931 92.3187C467.871 92.3187 459.861 100.882 459.861 114.056L459.612 159.835Z" fill="white"/>
<path d="M551.782 60.2072C544.469 60.2072 538.722 54.7729 538.722 48.0212C538.722 41.2696 544.469 36 551.782 36C558.748 36 564.494 41.2696 564.494 48.0212C564.494 54.7729 558.748 60.2072 551.782 60.2072ZM541.16 158.956V76.51H562.405L562.716 158.956H541.16Z" fill="white"/>
<path d="M598.661 158.956H574.455L604.728 118.008L575.125 76.51H599.853L618.834 104.175L637.118 76.51H660.975L631.72 117.679L660.774 158.956H636.395L617.441 131.017L598.661 158.956Z" fill="white"/>
<path d="M708.207 160C682.609 160 664.673 142.38 664.673 117.185C664.673 91.66 682.26 74.0398 707.51 74.0398C733.283 74.0398 749.652 90.3426 749.652 115.703V121.795L684.872 121.96C686.44 136.287 694.45 143.533 708.555 143.533C720.222 143.533 727.884 139.251 730.322 131.511H750C746.343 149.296 730.671 160 708.207 160ZM707.684 90.5073C695.147 90.5073 687.485 96.9296 685.395 109.116H728.581C728.581 97.9177 720.397 90.5073 707.684 90.5073Z" fill="white"/>
</svg>
